<svg width="127" height="39" viewBox="0 0 127 39" fill="none" xmlns="http://www.w3.org/2000/svg">
<rect width="1440" height="1024" transform="translate(-124 -16)" fill="white"/>
<path d="M14.978 13.364L10.496 26H6.644L2.162 13.364H5.438L8.57 22.904L11.72 13.364H14.978ZM19.3424 13.364V26H16.2644V13.364H19.3424ZM26.307 13.364C27.639 13.364 28.803 13.628 29.799 14.156C30.795 14.684 31.563 15.428 32.103 16.388C32.655 17.336 32.931 18.434 32.931 19.682C32.931 20.918 32.655 22.016 32.103 22.976C31.563 23.936 30.789 24.68 29.781 25.208C28.785 25.736 27.627 26 26.307 26H21.573V13.364H26.307ZM26.109 23.336C27.273 23.336 28.179 23.018 28.827 22.382C29.475 21.746 29.799 20.846 29.799 19.682C29.799 18.518 29.475 17.612 28.827 16.964C28.179 16.316 27.273 15.992 26.109 15.992H24.651V23.336H26.109ZM37.7292 15.83V18.386H41.8512V20.762H37.7292V23.534H42.3912V26H34.6512V13.364H42.3912V15.83H37.7292ZM50.3654 26.126C49.1774 26.126 48.0854 25.85 47.0894 25.298C46.1054 24.746 45.3194 23.978 44.7314 22.994C44.1554 21.998 43.8674 20.882 43.8674 19.646C43.8674 18.41 44.1554 17.3 44.7314 16.316C45.3194 15.332 46.1054 14.564 47.0894 14.012C48.0854 13.46 49.1774 13.184 50.3654 13.184C51.5534 13.184 52.6394 13.46 53.6234 14.012C54.6194 14.564 55.3994 15.332 55.9634 16.316C56.5394 17.3 56.8274 18.41 56.8274 19.646C56.8274 20.882 56.5394 21.998 55.9634 22.994C55.3874 23.978 54.6074 24.746 53.6234 25.298C52.6394 25.85 51.5534 26.126 50.3654 26.126ZM50.3654 23.318C51.3734 23.318 52.1774 22.982 52.7774 22.31C53.3894 21.638 53.6954 20.75 53.6954 19.646C53.6954 18.53 53.3894 17.642 52.7774 16.982C52.1774 16.31 51.3734 15.974 50.3654 15.974C49.3454 15.974 48.5294 16.304 47.9174 16.964C47.3174 17.624 47.0174 18.518 47.0174 19.646C47.0174 20.762 47.3174 21.656 47.9174 22.328C48.5294 22.988 49.3454 23.318 50.3654 23.318Z" fill="black"/>
<rect x="61" y="3" width="64" height="33" rx="5" fill="#E62117"/>
<path d="M76.528 13.436L71.92 26H68.86L64.252 13.436H66.952L70.408 23.426L73.846 13.436H76.528ZM80.5589 13.436V26H78.0389V13.436H80.5589ZM85.5686 15.47V18.62H89.7986V20.618H85.5686V23.948H90.3386V26H83.0486V13.418H90.3386V15.47H85.5686ZM109.423 13.436L105.913 26H102.943L100.585 17.054L98.1187 26L95.1667 26.018L91.7827 13.436H94.4827L96.6967 23.192L99.2527 13.436H102.061L104.473 23.138L106.705 13.436H109.423ZM117.548 26L114.776 21.104H113.588V26H111.068V13.436H115.784C116.756 13.436 117.584 13.61 118.268 13.958C118.952 14.294 119.462 14.756 119.798 15.344C120.146 15.92 120.32 16.568 120.32 17.288C120.32 18.116 120.08 18.866 119.6 19.538C119.12 20.198 118.406 20.654 117.458 20.906L120.464 26H117.548ZM113.588 19.214H115.694C116.378 19.214 116.888 19.052 117.224 18.728C117.56 18.392 117.728 17.93 117.728 17.342C117.728 16.766 117.56 16.322 117.224 16.01C116.888 15.686 116.378 15.524 115.694 15.524H113.588V19.214Z" fill="white"/>
</svg>
